<?xml version="1.0" encoding="utf-8"?>
<!-- Generator: Adobe Illustrator 16.0.1, SVG Export Plug-In . SVG Version: 6.00 Build 0)  -->
<!DOCTYPE svg PUBLIC "-//W3C//DTD SVG 1.1//EN" "http://www.w3.org/Graphics/SVG/1.1/DTD/svg11.dtd">
<svg version="1.1" id="Layer_1" xmlns="http://www.w3.org/2000/svg" xmlns:xlink="http://www.w3.org/1999/xlink" x="0px" y="0px"
	 width="50px" height="50px" viewBox="1.5 0 50 50" enable-background="new 1.5 0 50 50" xml:space="preserve">
<g>
	<g>
		<circle fill="#4D4D4D" cx="26.5" cy="25" r="25"/>
	</g>
</g>
<path fill="#FFFFFF" d="M16.777,11.687l24.019,24.018c0.542,0.542,1.421,0.542,1.964,0s0.543-1.422,0-1.964l-25-25
	c-0.542-0.542-1.422-0.542-1.964,0l-5.556,5.556c-0.542,0.542-0.542,1.421,0,1.964l25,25c0.542,0.543,1.422,0.543,1.964,0
	c0.543-0.542,0.542-1.422,0-1.964L13.187,15.278L16.777,11.687z"/>
<path fill="#FFFFFF" d="M21.803,26.105l-8.616,8.616l3.591,3.592l24.019-24.018c0.542-0.542,1.421-0.542,1.964,0
	c0.543,0.542,0.543,1.422,0,1.964l-25,25c-0.542,0.543-1.422,0.543-1.964,0l-5.556-5.556c-0.542-0.542-0.542-1.421,0-1.964
	l9.865-9.865L21.803,26.105z"/>
<path fill="#FFFFFF" d="M25.664,18.316L35.24,8.74c0.542-0.542,1.422-0.542,1.964,0c0.543,0.542,0.542,1.421,0,1.964l-9.514,9.514
	L25.664,18.316z"/>
</svg>
