<?xml version="1.0" encoding="utf-8"?>
<!-- Generator: Adobe Illustrator 16.0.0, SVG Export Plug-In . SVG Version: 6.00 Build 0)  -->
<!DOCTYPE svg PUBLIC "-//W3C//DTD SVG 1.1//EN" "http://www.w3.org/Graphics/SVG/1.1/DTD/svg11.dtd">
<svg version="1.1" id="Layer_1" xmlns="http://www.w3.org/2000/svg" xmlns:xlink="http://www.w3.org/1999/xlink" x="0px" y="0px"
	 width="21px" height="21px" viewBox="0 0 21 21" enable-background="new 0 0 21 21" xml:space="preserve">
<symbol  id="icon_x5F_header_x5F_rightpanel" viewBox="0 -17 20 17">
	<g>
		<g>
			<g opacity="0.5">
				<path fill="#FFFFFF" d="M19-1H1C0.447-1,0-1.447,0-2v-14c0-0.553,0.447-1,1-1h18c0.553,0,1,0.447,1,1v14C20-1.447,19.553-1,19-1
					z M18-15h-6v12h6V-15z"/>
			</g>
			<g>
				<g opacity="0.5">
					<linearGradient id="SVGID_1_" gradientUnits="userSpaceOnUse" x1="10" y1="0" x2="10" y2="-16.3354">
						<stop  offset="0" style="stop-color:#000000;stop-opacity:0.6"/>
						<stop  offset="1" style="stop-color:#000000;stop-opacity:0.7"/>
					</linearGradient>
					<path fill="url(#SVGID_1_)" d="M19,0H1C0.447,0,0-0.447,0-1v-14c0-0.553,0.447-1,1-1h18c0.553,0,1,0.447,1,1v14
						C20-0.447,19.553,0,19,0z M18-14h-6v12h6V-14z"/>
				</g>
			</g>
		</g>
		<path opacity="0.1" d="M12-15h6v1h-6V-15z M19,0H1C0.447,0,0-0.447,0-1v-1c0,0.553,0.447,1,1,1h18c0.553,0,1-0.447,1-1v1
			C20-0.447,19.553,0,19,0z"/>
	</g>
</symbol>
<rect fill="#4387FD" fill-opacity="0" width="21" height="21"/>
<use xlink:href="#icon_x5F_header_x5F_rightpanel"  width="20" height="17" id="XMLID_93_" y="-17" transform="matrix(1 0 0 -1 0.5 2.2495)" overflow="visible"/>
</svg>
