<?xml version="1.0" encoding="utf-8"?>
<!-- Generator: Adobe Illustrator 15.0.2, SVG Export Plug-In . SVG Version: 6.00 Build 0)  -->
<!DOCTYPE svg PUBLIC "-//W3C//DTD SVG 1.1//EN" "http://www.w3.org/Graphics/SVG/1.1/DTD/svg11.dtd">
<svg version="1.1" id="Layer_1" xmlns="http://www.w3.org/2000/svg" xmlns:xlink="http://www.w3.org/1999/xlink" x="0px" y="0px"
	 width="32px" height="32px" viewBox="0 0 32 32" enable-background="new 0 0 32 32" xml:space="preserve">
<g>
	<defs>
		<rect id="SVGID_1_" x="0.344" y="0.961" width="32" height="32.161"/>
	</defs>
	<clipPath id="SVGID_2_">
		<use xlink:href="#SVGID_1_"  overflow="visible"/>
	</clipPath>
	<g clip-path="url(#SVGID_2_)">
		<g>
			<g opacity="0.2">
				<defs>
					<rect id="SVGID_3_" x="0.344" y="0.961" opacity="0.2" width="31.2" height="32.161"/>
				</defs>
				<clipPath id="SVGID_4_">
					<use xlink:href="#SVGID_3_"  overflow="visible"/>
				</clipPath>
				<g clip-path="url(#SVGID_4_)">
					<g>
						<defs>
							<rect id="SVGID_5_" x="0.344" y="0.961" width="31.2" height="32.161"/>
						</defs>
						<clipPath id="SVGID_6_">
							<use xlink:href="#SVGID_5_"  overflow="visible"/>
						</clipPath>
						<g transform="matrix(1 0 0 1 -4.768372e-07 -4.768372e-07)" clip-path="url(#SVGID_6_)">
							
								<image overflow="visible" enable-background="new    " width="133" height="138" xlink:href="76EA5E61.png"  transform="matrix(0.2338 0 0 0.2338 0.397 0.9111)">
							</image>
						</g>
					</g>
				</g>
			</g>
			<g>
				<defs>
					<rect id="SVGID_7_" x="0.344" y="0.961" width="32" height="32.161"/>
				</defs>
				<clipPath id="SVGID_8_">
					<use xlink:href="#SVGID_7_"  overflow="visible"/>
				</clipPath>
				<g clip-path="url(#SVGID_8_)">
					<g>
						<defs>
							<path id="SVGID_9_" d="M23.23,17.283c0.076-0.429,0.113-0.87,0.113-1.322c0-0.45-0.037-0.893-0.113-1.322l1.898-1.347
								l0.215-0.802l-1.757-3.057l-0.798-0.216l-2.11,0.979c-0.669-0.567-1.442-1.014-2.28-1.319l-0.213-2.328l-0.585-0.587h-3.514
								l-0.585,0.587l-0.211,2.324c-0.843,0.305-1.617,0.751-2.287,1.32L8.901,9.217l-0.8,0.216l-1.757,3.057l0.213,0.803
								l1.898,1.345c-0.074,0.431-0.111,0.872-0.111,1.323c0,0.452,0.037,0.893,0.111,1.324l-1.897,1.347l-0.214,0.804l1.757,3.058
								l0.8,0.215l2.104-0.978c0.67,0.569,1.443,1.019,2.287,1.319l0.21,2.324l0.585,0.588h3.514l0.585-0.586l0.213-2.328
								c0.838-0.307,1.609-0.754,2.28-1.319l2.11,0.979l0.798-0.215l1.757-3.058l-0.215-0.806L23.23,17.283z M15.844,20.562
								c-2.54,0-4.6-2.062-4.6-4.6c0-2.539,2.06-4.6,4.6-4.6c2.539,0,4.6,2.061,4.6,4.6C20.443,18.499,18.383,20.562,15.844,20.562"
								/>
						</defs>
						<clipPath id="SVGID_10_">
							<use xlink:href="#SVGID_9_"  overflow="visible"/>
						</clipPath>
						
							<linearGradient id="SVGID_11_" gradientUnits="userSpaceOnUse" x1="-882.9707" y1="-115.2402" x2="-881.9707" y2="-115.2402" gradientTransform="matrix(-9.000000e-07 20.048 -20.048 -9.000000e-07 -2294.4893 17707.873)">
							<stop  offset="0" style="stop-color:#636466"/>
							<stop  offset="0.3939" style="stop-color:#5C5D5F"/>
							<stop  offset="1" style="stop-color:#58595B"/>
						</linearGradient>
						<rect x="6.344" y="5.961" clip-path="url(#SVGID_10_)" fill="url(#SVGID_11_)" width="19" height="20"/>
					</g>
					<g>
						<defs>
							<rect id="SVGID_12_" x="0.344" y="0.961" width="32" height="32.161"/>
						</defs>
						<clipPath id="SVGID_13_">
							<use xlink:href="#SVGID_12_"  overflow="visible"/>
						</clipPath>
						<g clip-path="url(#SVGID_13_)">
							<g opacity="0.02">
								<g>
									<defs>
										<rect id="SVGID_14_" x="6.344" y="5.961" width="19" height="20"/>
									</defs>
									<clipPath id="SVGID_15_">
										<use xlink:href="#SVGID_14_"  overflow="visible"/>
									</clipPath>
									<path clip-path="url(#SVGID_15_)" fill="#FFFFFF" d="M17.265,6.961l-0.002,0.036l0.16,1.97L17.471,9.6l0.59,0.217
										c0.732,0.268,1.395,0.651,1.973,1.143l0.487,0.413l0.579-0.269l1.78-0.825l0.047,0.012l1.345,2.341l-0.015,0.056
										l-1.604,1.137l-0.52,0.368l0.111,0.624c0.065,0.364,0.1,0.749,0.1,1.146c0,0.396-0.033,0.78-0.1,1.145l-0.111,0.625
										L22.65,18.1l1.605,1.14l0.015,0.057l-1.344,2.34l-0.047,0.012l-1.781-0.824l-0.578-0.268l-0.487,0.41
										c-0.584,0.494-1.25,0.879-1.978,1.145l-0.595,0.217l-0.059,0.631l-0.181,1.969l-0.037,0.037h-2.682l-0.037-0.037
										l-0.179-1.965l-0.057-0.635l-0.601-0.217c-0.731-0.262-1.397-0.646-1.978-1.141l-0.487-0.418l-0.582,0.271l-1.773,0.823
										l-0.048-0.013l-1.345-2.34l0.015-0.057l1.604-1.137l0.515-0.365l-0.108-0.623c-0.065-0.37-0.098-0.757-0.098-1.151
										s0.033-0.781,0.098-1.152l0.108-0.623l-0.517-0.365L7.43,12.687l-0.014-0.055l1.345-2.342l0.049-0.013l1.772,0.823
										l0.58,0.269l0.488-0.413c0.58-0.492,1.248-0.877,1.981-1.143l0.599-0.217l0.057-0.633l0.179-1.965l0.037-0.037h2.841
										 M15.844,21.562c3.087,0,5.6-2.513,5.6-5.6c0-3.088-2.513-5.6-5.6-5.6s-5.6,2.512-5.6,5.6
										C10.244,19.05,12.757,21.562,15.844,21.562 M17.601,5.961h-3.514l-0.585,0.588l-0.211,2.324
										c-0.843,0.305-1.617,0.751-2.287,1.32L8.901,9.217l-0.8,0.216l-1.757,3.057l0.213,0.804l1.898,1.344
										c-0.074,0.431-0.111,0.872-0.111,1.323c0,0.452,0.037,0.893,0.111,1.324l-1.897,1.347l-0.214,0.804l1.757,3.058l0.8,0.215
										l2.104-0.978c0.67,0.569,1.443,1.019,2.287,1.319l0.21,2.324l0.585,0.588h3.514l0.585-0.586l0.213-2.328
										c0.838-0.307,1.609-0.754,2.28-1.319l2.11,0.979l0.798-0.215l1.757-3.058l-0.215-0.806l-1.898-1.347
										c0.076-0.429,0.113-0.87,0.113-1.322c0-0.45-0.037-0.893-0.113-1.322l1.898-1.346l0.215-0.803l-1.757-3.057l-0.798-0.216
										l-2.11,0.979c-0.669-0.567-1.442-1.014-2.28-1.319l-0.213-2.328L17.601,5.961z M15.844,20.562c-2.54,0-4.6-2.062-4.6-4.6
										c0-2.539,2.06-4.6,4.6-4.6c2.539,0,4.6,2.061,4.6,4.6C20.443,18.499,18.383,20.562,15.844,20.562"/>
								</g>
							</g>
						</g>
					</g>
				</g>
			</g>
		</g>
	</g>
</g>
<rect opacity="0" fill="#FFFFFF" width="32" height="32"/>
</svg>
