<?xml version="1.0" encoding="utf-8"?>
<!-- Generator: Adobe Illustrator 16.0.0, SVG Export Plug-In . SVG Version: 6.00 Build 0)  -->
<!DOCTYPE svg PUBLIC "-//W3C//DTD SVG 1.1//EN" "http://www.w3.org/Graphics/SVG/1.1/DTD/svg11.dtd">
<svg version="1.1" id="Layer_1" xmlns="http://www.w3.org/2000/svg" xmlns:xlink="http://www.w3.org/1999/xlink" x="0px" y="0px"
	 width="21px" height="21px" viewBox="0 0 21 21" enable-background="new 0 0 21 21" xml:space="preserve">
<rect x="0.5" y="1" display="none" fill="#231F20" width="5" height="13"/>
<rect x="12.5" y="8" display="none" fill="#231F20" width="5" height="6"/>
<rect x="6.5" y="1" display="none" fill="#231F20" width="11" height="6"/>
<rect x="6.5" y="8" display="none" fill="#231F20" width="5" height="6"/>
<rect x="0.5" y="1" display="none" fill="#231F20" width="5" height="13"/>
<rect x="12.5" y="1" display="none" fill="#231F20" width="5" height="13"/>
<rect x="6.5" y="1" display="none" fill="#231F20" width="5" height="13"/>
<rect x="0.5" y="1" display="none" fill="#231F20" width="3" height="13"/>
<rect x="4.5" y="1" display="none" fill="#231F20" width="9" height="13"/>
<rect x="14.5" y="1" display="none" fill="#231F20" width="3" height="13"/>
<rect x="6.5" y="1" display="none" fill="#231F20" width="11" height="13"/>
<rect x="0.5" y="1" display="none" fill="#231F20" width="5" height="13"/>
<rect x="14" y="4.219" fill="#231F20" width="5" height="6"/>
<polygon fill="#231F20" points="2,11.219 2,10.219 7,10.219 7,4.219 2,4.219 2,17.219 7,17.219 7,11.219 "/>
<rect x="8" y="4.219" fill="#231F20" width="5" height="6"/>
<rect x="14" y="11.219" fill="#231F20" width="5" height="6"/>
<rect x="8" y="11.219" fill="#231F20" width="5" height="6"/>
<rect opacity="0" fill="#231F20" width="21" height="21"/>
</svg>
